OS_from_script.mot
version=1
datacolumns 20
datarows 31
range 2.480000 2.780000
inDegrees=yes
endheader
time	pelvis_tilt	pelvis_list	pelvis_rotation	hip_flexion_r	hip_adduction_r	hip_rotation_r	knee_angle_r	ankle_angle_r	hip_flexion_l	hip_adduction_l	hip_rotation_l	knee_angle_l	ankle_angle_l	pelvis_tx	pelvis_ty	pelvis_tz	lumbar_bending	lumbar_rotation	lumbar_extension
2.480000	-0.270000	2.260000	2.580000	2.710000	-8.280000	-4.900000	-50.050000	-17.670000	35.620000	-4.540000	-0.230000	-28.060000	2.250000	-0.190000	1.000000	0.340000	-0.000000	-0.000000	0.000000
2.490000	-0.050000	2.250000	2.480000	4.950000	-8.310000	-4.520000	-53.100000	-17.250000	34.510000	-4.760000	-0.190000	-27.740000	2.940000	-0.170000	1.000000	0.340000	-0.000000	-0.000000	0.000000
2.500000	0.150000	2.230000	2.270000	7.220000	-8.210000	-4.150000	-55.930000	-16.400000	33.360000	-4.820000	-0.170000	-27.300000	3.530000	-0.160000	1.000000	0.330000	-0.000000	-0.000000	0.000000
2.510000	0.330000	2.200000	1.960000	9.520000	-7.990000	-3.820000	-58.520000	-15.270000	32.200000	-4.730000	-0.150000	-26.760000	4.000000	-0.150000	1.010000	0.330000	-0.000000	-0.000000	0.000000
2.520000	0.490000	2.150000	1.620000	11.850000	-7.710000	-3.530000	-60.830000	-14.010000	31.040000	-4.530000	-0.100000	-26.130000	4.390000	-0.130000	1.010000	0.330000	-0.000000	-0.000000	0.000000
2.530000	0.650000	2.070000	1.280000	14.190000	-7.390000	-3.300000	-62.840000	-12.740000	29.900000	-4.270000	-0.030000	-25.420000	4.680000	-0.120000	1.010000	0.330000	-0.000000	-0.000000	0.000000
2.540000	0.790000	1.960000	0.970000	16.510000	-7.060000	-3.110000	-64.490000	-11.540000	28.770000	-3.990000	0.100000	-24.660000	4.910000	-0.110000	1.020000	0.330000	-0.000000	-0.000000	0.000000
2.550000	0.930000	1.840000	0.700000	18.780000	-6.750000	-2.930000	-65.770000	-10.460000	27.660000	-3.710000	0.280000	-23.840000	5.080000	-0.100000	1.020000	0.320000	-0.000000	-0.000000	0.000000
2.560000	1.040000	1.730000	0.470000	20.970000	-6.450000	-2.740000	-66.660000	-9.510000	26.550000	-3.440000	0.520000	-23.000000	5.210000	-0.090000	1.020000	0.320000	-7.840000	-2.840000	1.760000
2.570000	1.140000	1.620000	0.260000	23.070000	-6.150000	-2.550000	-67.180000	-8.680000	25.430000	-3.180000	0.810000	-22.150000	5.310000	-0.080000	1.030000	0.320000	-7.830000	-2.480000	1.550000
2.580000	1.220000	1.540000	0.090000	25.070000	-5.850000	-2.350000	-67.330000	-7.940000	24.300000	-2.940000	1.140000	-21.310000	5.370000	-0.070000	1.030000	0.320000	-7.630000	-1.890000	1.300000
2.590000	1.300000	1.480000	-0.060000	26.980000	-5.590000	-2.180000	-67.160000	-7.260000	23.150000	-2.750000	1.520000	-20.490000	5.420000	-0.050000	1.030000	0.320000	-7.560000	-1.600000	1.110000
2.600000	1.390000	1.460000	-0.160000	28.780000	-5.380000	-2.040000	-66.690000	-6.590000	21.980000	-2.610000	1.930000	-19.680000	5.450000	-0.040000	1.040000	0.320000	-7.440000	-1.260000	0.940000
2.610000	1.500000	1.480000	-0.210000	30.460000	-5.260000	-1.950000	-65.960000	-5.910000	20.770000	-2.550000	2.370000	-18.890000	5.470000	-0.030000	1.040000	0.320000	-7.280000	-0.880000	0.820000
2.620000	1.640000	1.530000	-0.200000	32.000000	-5.230000	-1.910000	-64.970000	-5.170000	19.510000	-2.570000	2.830000	-18.090000	5.490000	-0.020000	1.040000	0.320000	-7.080000	-0.460000	0.760000
2.630000	1.830000	1.620000	-0.140000	33.380000	-5.300000	-1.920000	-63.720000	-4.390000	18.200000	-2.670000	3.290000	-17.260000	5.520000	-0.010000	1.040000	0.320000	-6.850000	-0.020000	0.750000
2.640000	2.050000	1.760000	-0.040000	34.580000	-5.450000	-1.970000	-62.200000	-3.560000	16.820000	-2.820000	3.750000	-16.380000	5.590000	0.000000	1.040000	0.320000	-6.620000	0.450000	0.790000
2.650000	2.320000	1.940000	0.070000	35.580000	-5.660000	-2.030000	-60.410000	-2.740000	15.380000	-3.010000	4.170000	-15.450000	5.700000	0.020000	1.040000	0.320000	-6.380000	0.930000	0.870000
2.660000	2.620000	2.160000	0.200000	36.380000	-5.900000	-2.110000	-58.330000	-1.920000	13.880000	-3.240000	4.540000	-14.470000	5.880000	0.030000	1.040000	0.320000	-6.140000	1.420000	0.980000
2.670000	2.960000	2.410000	0.340000	36.980000	-6.170000	-2.190000	-55.950000	-1.110000	12.330000	-3.480000	4.840000	-13.460000	6.120000	0.040000	1.040000	0.320000	-5.890000	1.920000	1.130000
2.680000	3.330000	2.690000	0.510000	37.400000	-6.480000	-2.240000	-53.290000	-0.290000	10.740000	-3.770000	5.050000	-12.450000	6.420000	0.050000	1.040000	0.320000	-5.620000	2.440000	1.320000
2.690000	3.740000	3.010000	0.730000	37.630000	-6.810000	-2.220000	-50.320000	0.550000	9.100000	-4.110000	5.170000	-11.440000	6.750000	0.070000	1.040000	0.320000	-5.320000	2.960000	1.570000
2.700000	4.160000	3.350000	1.010000	37.680000	-7.190000	-2.070000	-47.060000	1.380000	7.420000	-4.510000	5.200000	-10.470000	7.090000	0.080000	1.040000	0.320000	-4.990000	3.490000	1.880000
2.710000	4.590000	3.710000	1.360000	37.570000	-7.630000	-1.760000	-43.520000	2.170000	5.710000	-4.990000	5.150000	-9.510000	7.430000	0.090000	1.040000	0.320000	-4.640000	4.010000	2.280000
2.720000	5.000000	4.090000	1.800000	37.320000	-8.110000	-1.290000	-39.700000	2.880000	3.980000	-5.530000	5.010000	-8.580000	7.760000	0.110000	1.030000	0.320000	-4.280000	4.510000	2.760000
2.730000	5.390000	4.460000	2.300000	36.960000	-8.630000	-0.640000	-35.670000	3.470000	2.240000	-6.120000	4.780000	-7.660000	8.080000	0.120000	1.030000	0.320000	-3.940000	4.970000	3.310000
2.740000	5.740000	4.820000	2.850000	36.540000	-9.180000	0.140000	-31.480000	3.910000	0.500000	-6.720000	4.500000	-6.750000	8.400000	0.130000	1.030000	0.320000	-3.650000	5.390000	3.900000
2.750000	6.060000	5.140000	3.420000	36.120000	-9.740000	1.010000	-27.210000	4.200000	-1.200000	-7.310000	4.190000	-5.860000	8.720000	0.150000	1.020000	0.320000	-3.430000	5.760000	4.520000
2.760000	6.340000	5.420000	3.990000	35.750000	-10.280000	1.930000	-22.980000	4.340000	-2.840000	-7.860000	3.890000	-4.990000	9.050000	0.160000	1.020000	0.330000	-3.300000	6.070000	5.120000
2.770000	6.590000	5.630000	4.530000	35.480000	-10.790000	2.840000	-18.900000	4.390000	-4.400000	-8.350000	3.630000	-4.180000	9.410000	0.180000	1.020000	0.330000	-3.260000	6.340000	5.680000
2.780000	6.800000	5.790000	5.010000	35.350000	-11.240000	3.680000	-15.090000	4.420000	-5.860000	-8.760000	3.430000	-3.440000	9.820000	0.190000	1.010000	0.330000	-3.270000	6.550000	6.190000
